<svg width="17" height="17" viewBox="0 0 17 17" fill="none" xmlns="http://www.w3.org/2000/svg">
<path d="M9.20964 13.458C9.20964 11.1134 11.1151 9.20801 13.4596 9.20801C14.2388 9.20801 14.9613 9.42051 15.5846 9.78176V4.24967C15.5846 3.87395 15.4354 3.51362 15.1697 3.24794C14.904 2.98226 14.5437 2.83301 14.168 2.83301H2.83464C2.04839 2.83301 1.41797 3.46342 1.41797 4.24967V12.7497C1.41797 13.1254 1.56722 13.4857 1.8329 13.7514C2.09858 14.0171 2.45891 14.1663 2.83464 14.1663H9.27339C9.23797 13.9326 9.20964 13.6988 9.20964 13.458ZM2.83464 5.66634V4.24967L8.5013 7.79134L14.168 4.24967V5.66634L8.5013 9.20801L2.83464 5.66634ZM14.168 15.583V14.1663H11.3346V12.7497H14.168V11.333L16.293 13.458L14.168 15.583Z" fill="white" fill-opacity="0.9"/>
</svg>
