<svg width="16" height="16" viewBox="0 0 16 16" fill="none" xmlns="http://www.w3.org/2000/svg">
<path d="M3.33228 14.0003C2.77672 14.0003 2.3045 13.8059 1.91561 13.417C1.52672 13.0281 1.33228 12.5559 1.33228 12.0003V7.33366C1.33228 6.7781 1.52672 6.30588 1.91561 5.91699C2.3045 5.5281 2.77672 5.33366 3.33228 5.33366C3.63228 5.33366 3.90739 5.39477 4.15761 5.51699C4.40783 5.63921 4.62694 5.80033 4.81494 6.00033H5.33228V2.66699H11.9989V6.00033H12.6656C13.2212 6.00033 13.6934 6.19477 14.0823 6.58366C14.4712 6.97255 14.6656 7.44477 14.6656 8.00033V13.3337H4.81561C4.62672 13.5337 4.40739 13.6948 4.15761 13.817C3.90783 13.9392 3.63272 14.0003 3.33228 14.0003ZM3.33228 12.667C3.52116 12.667 3.67961 12.603 3.80761 12.475C3.93561 12.347 3.99939 12.1888 3.99894 12.0003V7.33366C3.99894 7.14477 3.93494 6.98633 3.80694 6.85833C3.67894 6.73033 3.52072 6.66655 3.33228 6.66699C3.14339 6.66699 2.98494 6.73099 2.85694 6.85899C2.72894 6.98699 2.66516 7.14521 2.66561 7.33366V12.0003C2.66561 12.1892 2.72961 12.3477 2.85761 12.4757C2.98561 12.6037 3.14383 12.6674 3.33228 12.667ZM6.66561 6.00033H10.6656V4.00033H6.66561V6.00033ZM5.33228 12.0003H13.3323V8.00033C13.3323 7.81144 13.2683 7.65299 13.1403 7.52499C13.0123 7.39699 12.8541 7.33321 12.6656 7.33366H5.33228V12.0003ZM9.99894 9.33366C10.1878 9.33366 10.3463 9.26966 10.4743 9.14166C10.6023 9.01366 10.6661 8.85544 10.6656 8.66699C10.6656 8.4781 10.6016 8.31966 10.4736 8.19166C10.3456 8.06366 10.1874 7.99988 9.99894 8.00033C9.81005 8.00033 9.65161 8.06433 9.52361 8.19233C9.39561 8.32033 9.33183 8.47855 9.33227 8.66699C9.33227 8.85588 9.39627 9.01433 9.52427 9.14233C9.65228 9.27033 9.8105 9.3341 9.99894 9.33366ZM11.9989 9.33366C12.1878 9.33366 12.3463 9.26966 12.4743 9.14166C12.6023 9.01366 12.6661 8.85544 12.6656 8.66699C12.6656 8.4781 12.6016 8.31966 12.4736 8.19166C12.3456 8.06366 12.1874 7.99988 11.9989 8.00033C11.8101 8.00033 11.6516 8.06433 11.5236 8.19233C11.3956 8.32033 11.3318 8.47855 11.3323 8.66699C11.3323 8.85588 11.3963 9.01433 11.5243 9.14233C11.6523 9.27033 11.8105 9.3341 11.9989 9.33366ZM9.99894 11.3337C10.1878 11.3337 10.3463 11.2697 10.4743 11.1417C10.6023 11.0137 10.6661 10.8554 10.6656 10.667C10.6656 10.4781 10.6016 10.3197 10.4736 10.1917C10.3456 10.0637 10.1874 9.99988 9.99894 10.0003C9.81005 10.0003 9.65161 10.0643 9.52361 10.1923C9.39561 10.3203 9.33183 10.4785 9.33227 10.667C9.33227 10.8559 9.39627 11.0143 9.52427 11.1423C9.65228 11.2703 9.8105 11.3341 9.99894 11.3337ZM11.9989 11.3337C12.1878 11.3337 12.3463 11.2697 12.4743 11.1417C12.6023 11.0137 12.6661 10.8554 12.6656 10.667C12.6656 10.4781 12.6016 10.3197 12.4736 10.1917C12.3456 10.0637 12.1874 9.99988 11.9989 10.0003C11.8101 10.0003 11.6516 10.0643 11.5236 10.1923C11.3956 10.3203 11.3318 10.4785 11.3323 10.667C11.3323 10.8559 11.3963 11.0143 11.5243 11.1423C11.6523 11.2703 11.8105 11.3341 11.9989 11.3337ZM5.99894 11.3337H8.66561V8.00033H5.99894V11.3337Z" fill="white" fill-opacity="0.9"/>
</svg>
