<svg width="13" height="13" viewBox="0 0 13 13" fill="none" xmlns="http://www.w3.org/2000/svg">
<path d="M6.49947 6.4998C6.79739 6.4998 7.05251 6.39363 7.26485 6.1813C7.47718 5.96896 7.58317 5.71402 7.5828 5.41646C7.5828 5.11855 7.47664 4.86342 7.2643 4.65109C7.05197 4.43875 6.79703 4.33277 6.49947 4.33313C6.20155 4.33313 5.94643 4.4393 5.7341 4.65163C5.52176 4.86396 5.41578 5.11891 5.41614 5.41646C5.41614 5.71438 5.5223 5.9695 5.73464 6.18184C5.94697 6.39417 6.20192 6.50016 6.49947 6.4998ZM6.49947 10.481C7.60086 9.46994 8.41787 8.55127 8.95051 7.72505C9.48315 6.89882 9.74947 6.16541 9.74947 5.5248C9.74947 4.54077 9.43567 3.73513 8.80805 3.10788C8.18044 2.48063 7.41092 2.16682 6.49947 2.16646C5.58767 2.16646 4.81796 2.48027 4.19035 3.10788C3.56273 3.73549 3.24911 4.54113 3.24947 5.5248C3.24947 6.16577 3.51579 6.89937 4.04843 7.72559C4.58107 8.55181 5.39808 9.4703 6.49947 10.481ZM6.49947 11.7133C6.42725 11.7133 6.35503 11.6998 6.2828 11.6727C6.21058 11.6456 6.14739 11.6095 6.09322 11.5644C4.77517 10.3998 3.79114 9.31863 3.14114 8.32088C2.49114 7.32313 2.16614 6.3911 2.16614 5.5248C2.16614 4.17063 2.60182 3.09181 3.47318 2.28834C4.34454 1.48487 5.3533 1.08313 6.49947 1.08313C7.646 1.08313 8.65494 1.48487 9.5263 2.28834C10.3977 3.09181 10.8332 4.17063 10.8328 5.5248C10.8328 6.39146 10.5078 7.32367 9.85781 8.32142C9.20781 9.31917 8.22378 10.4002 6.90572 11.5644C6.85155 11.6095 6.78836 11.6456 6.71614 11.6727C6.64392 11.6998 6.57169 11.7133 6.49947 11.7133Z" fill="white"/>
</svg>
