<svg width="13" height="13" viewBox="0 0 13 13" fill="none" xmlns="http://www.w3.org/2000/svg">
<path d="M9.37083 5.07777C9.2625 4.96944 9.20833 4.8407 9.20833 4.69156C9.20833 4.54242 9.2625 4.41387 9.37083 4.3059L9.85833 3.8184H7.61042C7.45694 3.8184 7.32821 3.76658 7.22421 3.66294C7.12021 3.5593 7.06839 3.43056 7.06875 3.27673C7.06875 3.12326 7.12075 2.9947 7.22475 2.89106C7.32875 2.78742 7.45731 2.73542 7.61042 2.73506H9.85833L9.37083 2.24756C9.2625 2.13923 9.21068 2.01284 9.21538 1.8684C9.22007 1.72395 9.27189 1.59756 9.37083 1.48923C9.47917 1.3809 9.6079 1.32438 9.75704 1.31969C9.90618 1.31499 10.0347 1.36699 10.1427 1.47569L11.5646 2.89756C11.6188 2.95173 11.6572 3.01041 11.68 3.07361C11.7027 3.1368 11.7139 3.20451 11.7135 3.27673C11.7135 3.34895 11.7022 3.41666 11.6794 3.47986C11.6567 3.54305 11.6184 3.60173 11.5646 3.6559L10.1292 5.09131C10.0208 5.19965 9.89444 5.25165 9.75 5.24731C9.60556 5.24298 9.47917 5.18647 9.37083 5.07777ZM10.8063 11.3746C9.64167 11.3746 8.50651 11.115 7.40079 10.5957C6.29507 10.0765 5.31556 9.39034 4.46225 8.5374C3.60894 7.68445 2.92283 6.70494 2.40392 5.59886C1.885 4.49277 1.62536 3.35762 1.625 2.1934C1.625 2.0309 1.67917 1.89548 1.7875 1.78715C1.89583 1.67881 2.03125 1.62465 2.19375 1.62465H4.3875C4.51389 1.62465 4.62674 1.66527 4.72604 1.74652C4.82535 1.82777 4.88403 1.93159 4.90208 2.05798L5.25417 3.95381C5.27222 4.0802 5.26988 4.1954 5.24713 4.2994C5.22438 4.4034 5.17256 4.49584 5.09167 4.57673L3.79167 5.90381C4.17083 6.55381 4.64479 7.16319 5.21354 7.73194C5.78229 8.30069 6.40972 8.7927 7.09583 9.20798L8.36875 7.93506C8.45 7.85381 8.55617 7.79297 8.68725 7.75252C8.81833 7.71208 8.94689 7.7007 9.07292 7.7184L10.9417 8.09756C11.0681 8.12465 11.1719 8.18568 11.2531 8.28065C11.3344 8.37562 11.375 8.48612 11.375 8.61215V10.8059C11.375 10.9684 11.3208 11.1038 11.2125 11.2121C11.1042 11.3205 10.9688 11.3746 10.8063 11.3746Z" fill="white" fill-opacity="0.9"/>
</svg>
